<?xml version="1.0" encoding="UTF-8" standalone="no"?>
<svg
   viewBox="0 0 50 50"
   width="250px"
   height="250px"
   version="1.1"
   id="svg4"
   sodipodi:docname="apple.svg"
   inkscape:version="1.2.1 (9c6d41e410, 2022-07-14)"
   xmlns:inkscape="http://www.inkscape.org/namespaces/inkscape"
   xmlns:sodipodi="http://sodipodi.sourceforge.net/DTD/sodipodi-0.dtd"
   xmlns:xlink="http://www.w3.org/1999/xlink"
   xmlns="http://www.w3.org/2000/svg"
   xmlns:svg="http://www.w3.org/2000/svg">
  <defs
     id="defs8">
    <linearGradient
       inkscape:collect="always"
       id="linearGradient1746">
      <stop
         style="stop-color:#ffe100;stop-opacity:1;"
         offset="0"
         id="stop1742" />
      <stop
         style="stop-color:#ff6b00;stop-opacity:1;"
         offset="1"
         id="stop1744" />
    </linearGradient>
    <linearGradient
       inkscape:collect="always"
       xlink:href="#linearGradient1746"
       id="linearGradient1748"
       x1="7.9273844"
       y1="4.0479765"
       x2="43.750759"
       y2="44.191345"
       gradientUnits="userSpaceOnUse" />
  </defs>
  <sodipodi:namedview
     id="namedview6"
     pagecolor="#ffffff"
     bordercolor="#999999"
     borderopacity="1"
     inkscape:showpageshadow="0"
     inkscape:pageopacity="0"
     inkscape:pagecheckerboard="0"
     inkscape:deskcolor="#d1d1d1"
     showgrid="false"
     inkscape:zoom="3.348"
     inkscape:cx="86.469534"
     inkscape:cy="124.85066"
     inkscape:window-width="1920"
     inkscape:window-height="1017"
     inkscape:window-x="1912"
     inkscape:window-y="-8"
     inkscape:window-maximized="1"
     inkscape:current-layer="svg4" />
  <path
     d="M 44.527344 34.75 C 43.449219 37.144531 42.929688 38.214844 41.542969 40.328125 C 39.601563 43.28125 36.863281 46.96875 33.480469 46.992188 C 30.46875 47.019531 29.691406 45.027344 25.601563 45.0625 C 21.515625 45.082031 20.664063 47.03125 17.648438 47 C 14.261719 46.96875 11.671875 43.648438 9.730469 40.699219 C 4.300781 32.429688 3.726563 22.734375 7.082031 17.578125 C 9.457031 13.921875 13.210938 11.773438 16.738281 11.773438 C 20.332031 11.773438 22.589844 13.746094 25.558594 13.746094 C 28.441406 13.746094 30.195313 11.769531 34.351563 11.769531 C 37.492188 11.769531 40.8125 13.480469 43.1875 16.433594 C 35.421875 20.691406 36.683594 31.78125 44.527344 34.75 Z M 31.195313 8.46875 C 32.707031 6.527344 33.855469 3.789063 33.4375 1 C 30.972656 1.167969 28.089844 2.742188 26.40625 4.78125 C 24.878906 6.640625 23.613281 9.398438 24.105469 12.066406 C 26.796875 12.152344 29.582031 10.546875 31.195313 8.46875 Z"
     id="path2"
     style="fill:url(#linearGradient1748);fill-opacity:1" />
</svg>
