<?xml version="1.0" encoding="UTF-8" standalone="no"?>
<svg
   height="500px"
   width="500px"
   viewBox="0 0 50 50"
   version="1.1"
   id="svg4427"
   sodipodi:docname="menu.svg"
   inkscape:version="1.2.1 (9c6d41e410, 2022-07-14)"
   xmlns:inkscape="http://www.inkscape.org/namespaces/inkscape"
   xmlns:sodipodi="http://sodipodi.sourceforge.net/DTD/sodipodi-0.dtd"
   xmlns:xlink="http://www.w3.org/1999/xlink"
   xmlns="http://www.w3.org/2000/svg"
   xmlns:svg="http://www.w3.org/2000/svg">
  <defs
     id="defs4431">
    <linearGradient
       inkscape:collect="always"
       id="linearGradient4940">
      <stop
         style="stop-color:#0500ff;stop-opacity:1;"
         offset="0"
         id="stop4936" />
      <stop
         style="stop-color:#ffffff;stop-opacity:1;"
         offset="0.48444435"
         id="stop6396" />
      <stop
         style="stop-color:#ffffff;stop-opacity:1;"
         offset="0.59821802"
         id="stop6398" />
      <stop
         style="stop-color:#0500ff;stop-opacity:1;"
         offset="1"
         id="stop4938" />
    </linearGradient>
    <linearGradient
       inkscape:collect="always"
       xlink:href="#linearGradient4940"
       id="linearGradient4942"
       x1="-115.57697"
       y1="24.044205"
       x2="145.74423"
       y2="25.716846"
       gradientUnits="userSpaceOnUse" />
  </defs>
  <sodipodi:namedview
     id="namedview4429"
     pagecolor="#ffffff"
     bordercolor="#999999"
     borderopacity="1"
     inkscape:showpageshadow="0"
     inkscape:pageopacity="0"
     inkscape:pagecheckerboard="0"
     inkscape:deskcolor="#d1d1d1"
     showgrid="false"
     inkscape:zoom="0.4185"
     inkscape:cx="182.7957"
     inkscape:cy="59.737156"
     inkscape:window-width="1920"
     inkscape:window-height="1017"
     inkscape:window-x="1912"
     inkscape:window-y="-8"
     inkscape:window-maximized="1"
     inkscape:current-layer="svg4427" />
  <path
     d="M 3 9 A 1.0001 1.0001 0 1 0 3 11 L 47 11 A 1.0001 1.0001 0 1 0 47 9 L 3 9 z M 3 24 A 1.0001 1.0001 0 1 0 3 26 L 47 26 A 1.0001 1.0001 0 1 0 47 24 L 3 24 z M 3 39 A 1.0001 1.0001 0 1 0 3 41 L 47 41 A 1.0001 1.0001 0 1 0 47 39 L 3 39 z"
     id="path4425"
     style="fill-opacity:1;fill:url(#linearGradient4942)" />
</svg>
