<?xml version="1.0" encoding="UTF-8" standalone="no"?>
<svg
   class="MuiSvgIcon-root MuiSvgIcon-fontSizeMedium css-10dohqv"
   focusable="false"
   color="#6B7CD9"
   aria-hidden="true"
   viewBox="0 0 19 20"
   width="19"
   height="19"
   fill="none"
   data-darkreader-inline-color=""
   style="--darkreader-inline-color: #354a67;"
   version="1.1"
   id="svg22898"
   sodipodi:docname="rss.svg"
   inkscape:version="1.2.1 (9c6d41e410, 2022-07-14)"
   xmlns:inkscape="http://www.inkscape.org/namespaces/inkscape"
   xmlns:sodipodi="http://sodipodi.sourceforge.net/DTD/sodipodi-0.dtd"
   xmlns:xlink="http://www.w3.org/1999/xlink"
   xmlns="http://www.w3.org/2000/svg"
   xmlns:svg="http://www.w3.org/2000/svg">
  <defs
     id="defs22902">
    <linearGradient
       inkscape:collect="always"
       id="linearGradient24917">
      <stop
         style="stop-color:#ffe100;stop-opacity:1;"
         offset="0"
         id="stop24913" />
      <stop
         style="stop-color:#ff6b00;stop-opacity:1;"
         offset="1"
         id="stop24915" />
    </linearGradient>
    <linearGradient
       inkscape:collect="always"
       xlink:href="#linearGradient24917"
       id="linearGradient24919"
       x1="-0.49999833"
       y1="10.000002"
       x2="19.499998"
       y2="10.000002"
       gradientUnits="userSpaceOnUse"
       gradientTransform="matrix(1.2310915,0,0,1.2310912,-2.1953689,-2.3109141)" />
  </defs>
  <sodipodi:namedview
     id="namedview22900"
     pagecolor="#ffffff"
     bordercolor="#999999"
     borderopacity="1"
     inkscape:showpageshadow="0"
     inkscape:pageopacity="0"
     inkscape:pagecheckerboard="0"
     inkscape:deskcolor="#d1d1d1"
     showgrid="false"
     inkscape:zoom="22.026316"
     inkscape:cx="0.61290323"
     inkscape:cy="5.311828"
     inkscape:window-width="1920"
     inkscape:window-height="1017"
     inkscape:window-x="1912"
     inkscape:window-y="-8"
     inkscape:window-maximized="1"
     inkscape:current-layer="svg22898" />
  <path
     id="path23799"
     style="fill:url(#linearGradient24919);fill-opacity:1;stroke:none;stroke-width:4.62182;stroke-linecap:round;stroke-linejoin:round;stroke-miterlimit:6.1;stroke-dashoffset:2.15433;paint-order:fill markers stroke"
     d="M 9.5 0 A 10 10 0 0 0 -0.5 10 A 10 10 0 0 0 9.5 20 A 10 10 0 0 0 19.5 10 A 10 10 0 0 0 9.5 0 z M 3.6488487 2.9995888 C 7.0572453 2.9995888 10.325822 4.3542327 12.73602 6.7639803 C 15.146117 9.1737279 16.500411 12.441198 16.500411 15.849095 C 16.500411 16.483795 15.985851 16.998355 15.351151 16.998355 C 14.716352 16.998355 14.201891 16.483795 14.201891 15.849095 C 14.201891 13.050798 13.09084 10.366916 11.111842 8.3881579 C 9.1328131 6.4094299 6.4476359 5.2981086 3.6488487 5.2981086 C 3.0141293 5.2981086 2.4995888 4.783558 2.4995888 4.1488487 C 2.4995888 3.5141493 3.0141293 2.9995888 3.6488487 2.9995888 z M 3.6488487 8.1208882 C 5.6994266 8.1208882 7.6655542 8.9347187 9.1155428 10.384457 C 10.565552 11.834256 11.381168 13.800853 11.381168 15.851151 C 11.381168 16.485851 10.866607 17.000411 10.231908 17.000411 C 9.5971585 17.000411 9.082648 16.485851 9.082648 15.851151 C 9.082648 14.410453 8.5102641 13.027435 7.4913651 12.008635 C 6.4724572 10.989936 5.0898172 10.417352 3.6488487 10.417352 C 3.0141293 10.417352 2.4995888 9.9028015 2.4995888 9.2680921 C 2.4995888 8.6333927 3.0141293 8.1208882 3.6488487 8.1208882 z M 4.3807566 13.23602 C 5.4194055 13.23602 6.2619243 14.078689 6.2619243 15.117188 C 6.2619243 16.155786 5.4194055 16.998355 4.3807566 16.998355 C 3.3421076 16.998355 2.4995888 16.155786 2.4995888 15.117188 C 2.4995888 14.078689 3.3421076 13.23602 4.3807566 13.23602 z M 4.3807566 15.067845 C 4.3538266 15.067845 4.3314145 15.090288 4.3314145 15.117188 C 4.3314145 15.144187 4.3538266 15.16653 4.3807566 15.16653 C 4.4076866 15.16653 4.4300987 15.144187 4.4300987 15.117188 C 4.4300987 15.090288 4.4076866 15.067845 4.3807566 15.067845 z " />
</svg>
